<svg width="120" height="46" viewBox="0 0 120 46" fill="none" xmlns="http://www.w3.org/2000/svg">
<path d="M41.0163 23.8347C41.0163 24.5227 40.8723 25.1707 40.5843 25.7787C40.2963 26.3707 39.8243 26.8907 39.1683 27.3387C38.5283 27.7707 37.6883 28.1147 36.6483 28.3707C35.6243 28.6267 34.3603 28.7547 32.8563 28.7547C32.0083 28.7547 31.1763 28.6907 30.3603 28.5627C29.5603 28.4347 28.7923 28.2507 28.0563 28.0107C27.3363 27.7707 26.6643 27.4827 26.0403 27.1467C25.4323 26.7947 24.9043 26.4107 24.4563 25.9947L25.6563 24.5547C26.5683 25.3387 27.6323 25.9387 28.8483 26.3547C30.0643 26.7547 31.4003 26.9547 32.8563 26.9547C34.4723 26.9547 35.6163 26.7307 36.2883 26.2827C36.9603 25.8347 37.2963 25.2187 37.2963 24.4347C37.2963 23.8267 37.0323 23.3147 36.5043 22.8987C35.9763 22.4827 35.0803 22.0747 33.8163 21.6747L29.2563 20.2347C27.7523 19.7547 26.6163 19.1467 25.8483 18.4107C25.0803 17.6587 24.6963 16.7067 24.6963 15.5547C24.6963 14.9627 24.8323 14.3947 25.1043 13.8507C25.3923 13.2907 25.8323 12.8027 26.4243 12.3867C27.0163 11.9547 27.7683 11.6187 28.6803 11.3787C29.6083 11.1227 30.7203 10.9947 32.0163 10.9947C32.8003 10.9947 33.5763 11.0587 34.3443 11.1867C35.1283 11.3147 35.8723 11.4987 36.5763 11.7387C37.2963 11.9787 37.9603 12.2747 38.5683 12.6267C39.1923 12.9627 39.7283 13.3387 40.1763 13.7547L38.9763 15.1947C38.0643 14.4107 37.0403 13.8187 35.9043 13.4187C34.7683 13.0027 33.4723 12.7947 32.0163 12.7947C30.8163 12.7947 29.9123 13.0027 29.3043 13.4187C28.7123 13.8347 28.4163 14.3467 28.4163 14.9547C28.4163 15.2907 28.4723 15.5867 28.5843 15.8427C28.6963 16.0827 28.8803 16.3147 29.1363 16.5387C29.4083 16.7467 29.7603 16.9467 30.1923 17.1387C30.6243 17.3147 31.1603 17.5067 31.8003 17.7147L36.3363 19.1547C37.7923 19.6187 38.9363 20.2267 39.7683 20.9787C40.6003 21.7307 41.0163 22.6827 41.0163 23.8347ZM50.6163 27.0747C51.4003 27.0747 52.1283 26.9387 52.8003 26.6667C53.4883 26.3947 54.1603 26.0107 54.8163 25.5147L55.7763 26.9547C55.4723 27.2267 55.1123 27.4747 54.6963 27.6987C54.2963 27.9227 53.8563 28.1147 53.3763 28.2747C52.9123 28.4187 52.4243 28.5307 51.9123 28.6107C51.4003 28.7067 50.8883 28.7547 50.3763 28.7547C49.2403 28.7547 48.2003 28.6027 47.2563 28.2987C46.3283 28.0107 45.5363 27.5867 44.8803 27.0267C44.2243 26.4507 43.7123 25.7467 43.3443 24.9147C42.9923 24.0827 42.8163 23.1227 42.8163 22.0347C42.8163 20.9627 42.9843 20.0107 43.3203 19.1787C43.6723 18.3307 44.1523 17.6267 44.7603 17.0667C45.3843 16.4907 46.1203 16.0587 46.9683 15.7707C47.8163 15.4667 48.7523 15.3147 49.7763 15.3147C50.7363 15.3147 51.6403 15.4587 52.4883 15.7467C53.3363 16.0347 54.0723 16.4587 54.6963 17.0187C55.3203 17.5627 55.8163 18.2267 56.1843 19.0107C56.5523 19.7947 56.7363 20.6827 56.7363 21.6747V23.3547H46.4883C46.6803 24.6827 47.1363 25.6347 47.8563 26.2107C48.5923 26.7867 49.5123 27.0747 50.6163 27.0747ZM49.7763 16.8747C49.3123 16.8747 48.8803 16.9627 48.4803 17.1387C48.0803 17.3147 47.7283 17.5947 47.4243 17.9787C47.1363 18.3627 46.8963 18.8587 46.7043 19.4667C46.5283 20.0747 46.4323 20.8107 46.4163 21.6747H53.1363C53.1363 20.8427 53.0403 20.1227 52.8483 19.5147C52.6563 18.9067 52.4003 18.4107 52.0803 18.0267C51.7763 17.6267 51.4163 17.3387 51.0003 17.1627C50.6003 16.9707 50.1923 16.8747 49.7763 16.8747ZM68.9744 17.4747H66.0944C65.0064 17.4747 64.1744 17.7707 63.5984 18.3627C63.0224 18.9387 62.7344 19.8027 62.7344 20.9547V28.2747H59.3744V20.9547C59.3744 19.3227 59.8864 18.0587 60.9104 17.1627C61.9504 16.2507 63.4384 15.7947 65.3744 15.7947H68.9744V17.4747ZM79.525 28.2747H74.245L69.445 15.7947H72.805L76.765 26.2347H77.005L80.965 15.7947H84.325L79.525 28.2747ZM92.9678 27.0747C93.7518 27.0747 94.4798 26.9387 95.1518 26.6667C95.8398 26.3947 96.5118 26.0107 97.1678 25.5147L98.1278 26.9547C97.8238 27.2267 97.4638 27.4747 97.0478 27.6987C96.6478 27.9227 96.2078 28.1147 95.7278 28.2747C95.2638 28.4187 94.7758 28.5307 94.2638 28.6107C93.7518 28.7067 93.2398 28.7547 92.7278 28.7547C91.5918 28.7547 90.5518 28.6027 89.6078 28.2987C88.6798 28.0107 87.8878 27.5867 87.2318 27.0267C86.5758 26.4507 86.0638 25.7467 85.6958 24.9147C85.3438 24.0827 85.1678 23.1227 85.1678 22.0347C85.1678 20.9627 85.3358 20.0107 85.6718 19.1787C86.0238 18.3307 86.5038 17.6267 87.1118 17.0667C87.7358 16.4907 88.4718 16.0587 89.3198 15.7707C90.1678 15.4667 91.1038 15.3147 92.1278 15.3147C93.0878 15.3147 93.9918 15.4587 94.8398 15.7467C95.6878 16.0347 96.4238 16.4587 97.0478 17.0187C97.6718 17.5627 98.1678 18.2267 98.5358 19.0107C98.9038 19.7947 99.0878 20.6827 99.0878 21.6747V23.3547H88.8398C89.0318 24.6827 89.4878 25.6347 90.2078 26.2107C90.9438 26.7867 91.8638 27.0747 92.9678 27.0747ZM92.1278 16.8747C91.6638 16.8747 91.2318 16.9627 90.8318 17.1387C90.4318 17.3147 90.0798 17.5947 89.7758 17.9787C89.4878 18.3627 89.2478 18.8587 89.0558 19.4667C88.8798 20.0747 88.7838 20.8107 88.7678 21.6747H95.4878C95.4878 20.8427 95.3918 20.1227 95.1998 19.5147C95.0078 18.9067 94.7518 18.4107 94.4318 18.0267C94.1278 17.6267 93.7678 17.3387 93.3518 17.1627C92.9518 16.9707 92.5438 16.8747 92.1278 16.8747Z" fill="#C12F1D"/>
<path d="M22.0698 5.40434C23.8662 4.07064 25.7498 2.78521 27.6635 1.57091C25.6786 2.889 23.8154 4.16646 22.0698 5.40434C-0.338892 22.0411 -9.17355 46.1872 106.529 33.4273C50.8488 43.0769 -41.448 50.448 22.0698 5.40434Z" fill="#C12F1D"/>
<circle cx="115.385" cy="30.989" r="4.61538" fill="#C12F1D"/>
</svg>
